<?xml version="1.0" encoding="UTF-8"?>
<svg id="Layer_2" data-name="Layer 2" xmlns="http://www.w3.org/2000/svg" viewBox="0 0 260.67 160.17">
  <defs>
    <style>
      .cls-1 {
        fill: #edf4fc;
      }
    </style>
  </defs>
  <g id="Layer_1-2" data-name="Layer 1">
    <g>
      <path class="cls-1" d="M140.67,160.17V0h34.07v160.17h-34.07Z"/>
      <path class="cls-1" d="M185.48,160.17V50.96h30.21l3.41,20.05c2.87-4.65,6.36-8.64,10.45-11.99,4.09-3.34,8.78-5.96,14.08-7.85,5.3-1.89,10.98-2.83,17.04-2.83v34.66h-10.45c-4.54,0-8.71.47-12.49,1.42-3.79.95-7.04,2.51-9.77,4.69-2.73,2.18-4.81,5.16-6.25,8.94-1.44,3.78-2.16,8.43-2.16,13.95v48.17h-34.07Z"/>
      <rect class="cls-1" x="95.86" y="51.05" width="34.07" height="109.12"/>
      <rect class="cls-1" x="95.86" y="0" width="34.07" height="36.34"/>
      <polygon class="cls-1" points="85.13 36.34 85.13 0 34.07 0 0 0 0 160.17 34.07 160.17 34.07 102.45 85.13 102.45 85.13 66.1 34.07 66.1 34.07 36.34 85.13 36.34"/>
    </g>
  </g>
</svg>