<?xml version="1.0" encoding="UTF-8"?>
<svg id="Layer_2" data-name="Layer 2" xmlns="http://www.w3.org/2000/svg" viewBox="0 0 448.56 455.16">
  <defs>
    <style>
      .cls-1 {
        fill: #ebf3fe;
      }
    </style>
  </defs>
  <g id="Layer_1-2" data-name="Layer 1">
    <path class="cls-1" d="M446.95,25.94c-3-7.77-10.4-11.17-18.54-11.6l-32.87-1.76-124.37-6.28-76.4-3.77L146.33.01c-6.33-.33-11.82,6.38-12.05,12.32l-.69,17.92-.7,34.63-1.36,64.88-.17,12.12c-.41,25.43-.82,50.86-1.23,76.29-.11,7-.22,14-.33,21l-1.09,54.58-2.3,108.56c-4.95,10.64-13.07,16.99-19.16,15.68-5.13-1.1-9.57-7.79-11.04-10-1.84-2.77-3.76-6.75-4.04-7.31-.76-1.53-1.56-3.31-2.41-5.53-2.51-6.52-4.15-11.61-4.55-12.88-1.47-4.59-3.39-10.86-5.46-18.46-3.99-15.2-7.99-30.4-11.98-45.6-1.91-8.16-3.83-16.32-5.74-24.48-7.06-33.67-14.11-67.35-21.17-101.02l-7.54-37-5.88-28.23-9.82-51.27c-1.85-1.89-3.72-4.95-6.54-6.02-3.14-1.2-6.13.11-8.21,2.18-1.75,1.74-3.29,4.93-2.75,7.83l4.13,22.23,24.29,113.45,18.01,78.52c4.9,19.38,9.8,38.76,14.7,58.14,5.49,21.46,11.91,42.03,19.39,62.86.75,2.09,1.9,4.11,3.77,8.84.93,2.35,2.28,5.91,4.24,9.4.64,1.14,1.3,2.18,1.37,2.28.65,1.02,1.68,2.51,3.12,4.39,3.97,5.21,5.96,7.81,9.44,10,3.09,1.94,5.91,2.7,8.63,3.44,3.75,1.01,7.01,1.33,9.4,1.42l43.45-.63,81.44-2.51c8.59-.26,15.08-6.98,16.32-14.69l1-14.67,1.04-13.83,4.1-64.82,2.85-49.93,77.33,4.58,58.54,3.61c8.43.52,15.35-6.09,16.77-14.13l2.05-23.77.95-16.09.46-8.84.88-12.94,1.71-27.72c-.08-1.91-.53-6.17-3.5-10.28-.76-1.06-2.09-2.66-4.12-4.11-4.56-3.26-9.45-3.47-11.55-3.44l-109.85-6.48-13.65-.76-8.38-.63,2.4-43.07,144.29,7.96c11.24.62,17.83-8.89,18.41-18.77l5-85.17c.15-2.6-.86-6.17-1.6-8.09Z"/>
    <path class="cls-1" d="M68.26,91.63l4.07,35.25,10.01,84.52,1.06,8.93.37,2.31,1.43,12.06,4.8,38.27,13.17,100.34,1.52,1.32v-17.24s-7.23-110.7-7.23-110.7l-7.14-97.71-7.18-94.82-1.53-18.83c-.2-2.49-3.81-5.78-6.21-6.8-3.05-1.3-6.88-.64-9.24,1.31-1.72,1.42-4.18,4.83-3.83,7.93l5.96,53.84Z"/>
    <path class="cls-1" d="M36.01,97.68l11.06,54.87,4.47,23.86,3.14,16.19,1.08,6.21,6.12,31.29.47,2.32.46,2.28,14.2,69.89c4.46,21.95,8.62,43.37,14.42,64.23,1.11-.9,1.52-3.12,1.31-4.73l-15.13-112.85-10.52-70.39-3.76-25.12c-4.1-26.87-8.21-53.74-12.31-80.61l-3.2-21.73c-.61-4.14-5.24-7.64-9.45-7.62-3.59.01-6.41,1.05-8.41,3.56-1.64,2.05-2.13,5.51-1.53,8.64l7.59,39.7Z"/>
    <path class="cls-1" d="M105.7,196.45l3.13,71.96,5.78,97.2c.08,1.43,1.3,2.69,1.87,3.41l2.14-4.13.6-92.72.04-47.3-.29-95.8-.48-95.69v-3.86c.02-3.85.19-8.17-.46-11.92-.82-4.72-5.54-7.93-9.87-7.71-4.76.24-9.3,4.42-9.1,9.96l2.45,69.62,4.2,106.98Z"/>
  </g>
</svg>